HIERARCHY
ROOT Hips
{
	OFFSET -0.001795 -0.223333 0.028219
	CHANNELS 6 Xposition Yposition Zposition Zrotation Yrotation Xrotation 
	JOINT LeftUpLeg
	{
		OFFSET 0.069520 -0.091406 -0.006815
		CHANNELS 3 Zrotation Yrotation Xrotation
		JOINT LeftLeg
		{
			OFFSET 0.034277 -0.375199 -0.004496
			CHANNELS 3 Zrotation Yrotation Xrotation
			JOINT LeftFoot
			{
				OFFSET -0.013596 -0.397961 -0.043693
				CHANNELS 3 Zrotation Yrotation Xrotation
				JOINT LeftToe
				{
					OFFSET 0.026358 -0.055791 0.119288
					CHANNELS 3 Zrotation Yrotation Xrotation
					End Site
					{
						OFFSET 0.000000 0.000000 0.000000
					}
				}
			}
		}
	}
	JOINT RightUpLeg
	{
		OFFSET -0.067670 -0.090522 -0.004320
		CHANNELS 3 Zrotation Yrotation Xrotation
		JOINT RightLeg
		{
			OFFSET -0.038290 -0.382569 -0.008850
			CHANNELS 3 Zrotation Yrotation Xrotation
			JOINT RightFoot
			{
				OFFSET 0.015774 -0.398415 -0.042312
				CHANNELS 3 Zrotation Yrotation Xrotation
				JOINT RightToe
				{
					OFFSET -0.025372 -0.048144 0.123348
					CHANNELS 3 Zrotation Yrotation Xrotation
					End Site
					{
						OFFSET 0.000000 0.000000 0.000000
					}
				}
			}
		}
	}
	JOINT Spine
	{
		OFFSET -0.002533 0.108963 -0.026696
		CHANNELS 3 Zrotation Yrotation Xrotation
		JOINT Spine1
		{
			OFFSET 0.005487 0.135180 0.001092
			CHANNELS 3 Zrotation Yrotation Xrotation
			JOINT Spine2
			{
				OFFSET 0.001457 0.052922 0.025425
				CHANNELS 3 Zrotation Yrotation Xrotation
				JOINT Neck
				{
					OFFSET -0.002778 0.213870 -0.042857
					CHANNELS 3 Zrotation Yrotation Xrotation
					JOINT Head
					{
						OFFSET 0.005152 0.064970 0.051349
						CHANNELS 3 Zrotation Yrotation Xrotation
						End Site
						{
							OFFSET 0.000000 0.000000 0.000000
						}
					}
				}
				JOINT LeftShoulder
				{
					OFFSET 0.078845 0.121749 -0.034090
					CHANNELS 3 Zrotation Yrotation Xrotation
					JOINT LeftArm
					{
						OFFSET 0.090977 0.030469 -0.008868
						CHANNELS 3 Zrotation Yrotation Xrotation
						JOINT LeftForeArm
						{
							OFFSET 0.259612 -0.012772 -0.027456
							CHANNELS 3 Zrotation Yrotation Xrotation
							JOINT LeftHand
							{
								OFFSET 0.249234 0.008986 -0.001171
								CHANNELS 3 Zrotation Yrotation Xrotation
								End Site
								{
									OFFSET 0.000000 0.000000 0.000000
								}
							}
						}
					}
				}
				JOINT RightShoulder
				{
					OFFSET -0.081759 0.118833 -0.038615
					CHANNELS 3 Zrotation Yrotation Xrotation
					JOINT RightArm
					{
						OFFSET -0.096012 0.032551 -0.009143
						CHANNELS 3 Zrotation Yrotation Xrotation
						JOINT RightForeArm
						{
							OFFSET -0.253742 -0.013329 -0.021401
							CHANNELS 3 Zrotation Yrotation Xrotation
							JOINT RightHand
							{
								OFFSET -0.255298 0.007772 -0.005559
								CHANNELS 3 Zrotation Yrotation Xrotation
								End Site
								{
									OFFSET 0.000000 0.000000 0.000000
								}
							}
						}
					}
				}
			}
		}
	}
}
MOTION
Frames: 7
Frame Time: 0.050000
0.070309 0.959657 -0.069071 -4.220746 -12.901620 4.420637 6.907050 -0.156127 -11.233043 -8.120415 1.844764 10.874748 20.045719 29.398382 32.325277 0.000000 0.000000 0.000000 -9.311158 0.777939 -7.567444 5.718285 0.086410 23.017127 -1.423175 -5.524167 3.587261 0.000000 0.000000 0.000000 -5.999958 1.375086 26.969919 -10.484202 3.159802 -19.789222 -1.252655 8.162796 28.757209 11.801983 -4.995644 -26.500734 0.000000 0.000000 0.000000 1.709622 -20.869788 6.917810 -53.861245 -22.369239 1.245379 26.488499 -42.849078 -7.663288 0.000000 0.000000 0.000000 17.039340 14.352611 6.985802 57.010289 36.370766 9.953021 -1.941018 57.625667 3.141668 0.000000 0.000000 0.000000 
0.071099 0.961050 -0.069511 -4.422936 -12.996851 4.397522 6.751155 -0.166263 -10.618882 -7.816501 1.653667 9.252146 21.697556 30.615232 34.673319 0.000000 0.000000 0.000000 -10.166971 0.783241 -7.054124 6.405390 0.067876 26.561414 -3.095343 -11.837121 11.242393 0.000000 0.000000 0.000000 -6.579701 1.508915 26.543031 -10.402719 3.177709 -19.174574 -1.430891 8.680093 28.276405 12.845394 -5.317910 -27.380801 0.000000 0.000000 0.000000 2.518757 -20.161915 6.561302 -53.789445 -21.680749 0.923105 24.229597 -41.504403 -6.677585 0.000000 0.000000 0.000000 16.456901 14.432746 7.052169 57.811335 37.058972 10.693593 -2.275629 61.420041 3.380016 0.000000 0.000000 0.000000 
0.071100 0.962587 -0.070087 -4.891874 -13.031858 4.858588 6.757745 -0.162193 -9.926231 -7.208846 1.376140 7.065129 22.691892 31.412906 35.589554 0.000000 0.000000 0.000000 -10.676259 0.796765 -6.340008 6.907642 0.047550 29.263841 -4.741913 -15.793816 16.648627 0.000000 0.000000 0.000000 -6.877931 1.541021 25.831006 -10.360272 3.158132 -19.205358 -1.290861 9.045977 28.483379 13.504095 -5.462727 -28.286628 0.000000 0.000000 0.000000 3.371291 -19.540960 6.251199 -53.770677 -20.755517 0.450096 20.895884 -40.020149 -5.293554 0.000000 0.000000 0.000000 15.354347 14.316023 6.931085 58.977067 37.766811 11.508337 -2.032274 64.466401 3.949109 0.000000 0.000000 0.000000 
0.070730 0.963837 -0.070810 -5.659548 -13.158497 5.401211 7.211313 -0.111614 -9.767765 -6.500960 1.159213 5.706867 23.452820 31.786469 37.120609 0.000000 0.000000 0.000000 -11.140795 0.820552 -5.362154 7.193392 0.100996 31.898379 -5.684358 -17.388701 17.962626 0.000000 0.000000 0.000000 -6.953838 1.506943 25.036445 -10.427976 3.171005 -19.185819 -1.148608 9.431923 28.242418 13.553035 -5.344618 -28.665045 0.000000 0.000000 0.000000 4.239626 -18.147152 5.726716 -54.066638 -19.433657 -0.152007 16.986937 -38.588983 -3.816725 0.000000 0.000000 0.000000 14.987109 14.225037 6.894847 60.048422 37.713356 11.892392 -3.058036 67.654364 3.718544 0.000000 0.000000 0.000000 
0.070283 0.965684 -0.071628 -6.489688 -13.277621 5.915599 7.886874 -0.039605 -9.374251 -5.971846 1.005768 4.543609 22.899097 31.298077 36.844147 0.000000 0.000000 0.000000 -11.291692 0.839198 -4.308001 7.472930 0.099879 33.498127 -6.093331 -17.994834 18.246074 0.000000 0.000000 0.000000 -7.219900 1.559835 24.667743 -10.389832 3.121363 -19.634088 -0.414004 9.787924 28.240302 13.467403 -5.101540 -29.337211 0.000000 0.000000 0.000000 4.632878 -17.150091 5.399716 -53.942798 -17.634293 -1.005647 13.016772 -36.797903 -2.410453 0.000000 0.000000 0.000000 14.503716 13.235158 6.400551 61.051510 37.370885 12.065125 -2.385701 70.081341 4.563728 0.000000 0.000000 0.000000 
0.069847 0.967663 -0.072409 -7.388009 -13.660552 6.481660 8.599884 0.043571 -9.195946 -5.386826 0.871806 3.664532 22.712834 30.961250 37.339008 0.000000 0.000000 0.000000 -11.370128 0.867786 -3.846167 7.815190 0.132329 35.403764 -5.542792 -17.249139 18.906960 0.000000 0.000000 0.000000 -7.052480 1.496625 24.137333 -10.256374 3.068741 -19.645227 -0.064487 9.900400 28.027320 13.632795 -5.151651 -29.583221 0.000000 0.000000 0.000000 5.255169 -15.568666 4.877835 -54.484163 -15.888500 -1.758010 10.238454 -35.360741 -1.446512 0.000000 0.000000 0.000000 14.550430 12.957969 6.244701 61.991822 37.292816 12.330088 -1.753535 70.752624 5.123908 0.000000 0.000000 0.000000 
0.069453 0.968693 -0.072296 -8.421194 -14.269827 7.222146 9.560690 0.161951 -9.253753 -5.213508 0.822249 2.770872 23.885904 31.619686 39.114859 0.000000 0.000000 0.000000 -10.994316 0.877213 -3.472219 7.576102 0.360175 35.972389 -4.583119 -16.047632 20.070856 0.000000 0.000000 0.000000 -7.145018 1.498911 23.356765 -9.681722 2.876481 -19.674392 0.104637 10.350969 27.455104 15.032734 -5.970708 -29.193792 0.000000 0.000000 0.000000 6.081240 -14.591699 4.533395 -54.951838 -13.238896 -2.918635 7.115423 -34.989827 -0.507822 0.000000 0.000000 0.000000 15.398894 12.091510 5.905633 62.104865 36.481017 11.886846 1.626749 72.461753 7.809012 0.000000 0.000000 0.000000 
